<svg width="359" height="59" viewBox="0 0 359 59" fill="none" xmlns="http://www.w3.org/2000/svg">
<path fill-rule="evenodd" clip-rule="evenodd" d="M12.7763 17.5236C12.274 16.3246 11.2534 15.25 9.95341 15.25H6.375C3.06129 15.25 0.375 17.9363 0.375 21.25V24.5627C0.375 27.8765 3.06129 30.5627 6.375 30.5627H31.125C34.4387 30.5627 37.125 27.8765 37.125 24.5627V21.25C37.125 17.9363 34.4387 15.25 31.125 15.25L27.403 15.25C26.103 15.25 25.0824 16.3246 24.5801 17.5236V17.5236C24.2591 18.29 23.7885 18.9863 23.1954 19.5728C22.6022 20.1594 21.8979 20.6246 21.1229 20.942C20.3478 21.2595 19.5171 21.4229 18.6782 21.4229C17.8393 21.4229 17.0086 21.2595 16.2336 20.942C15.4585 20.6246 14.7543 20.1594 14.1611 19.5728C13.5679 18.9863 13.0973 18.29 12.7763 17.5236V17.5236ZM6.375 52C3.06129 52 0.375 49.3137 0.375 46V42.6877C0.375 39.374 3.06129 36.6877 6.375 36.6877H31.125C34.4387 36.6877 37.125 39.374 37.125 42.6877V46C37.125 49.3137 34.4387 52 31.125 52H27.403C26.103 52 25.0824 50.9254 24.5801 49.7264V49.7264C24.2591 48.96 23.7885 48.2637 23.1954 47.6772C22.6022 47.0906 21.8979 46.6254 21.1229 46.308C20.3478 45.9905 19.5171 45.8271 18.6782 45.8271C17.8393 45.8271 17.0086 45.9905 16.2336 46.308C15.4585 46.6254 14.7543 47.0906 14.1611 47.6772C13.5679 48.2637 13.0973 48.96 12.7763 49.7264V49.7264C12.274 50.9254 11.2534 52 9.95341 52H6.375Z" fill="black"/>
<path d="M69.589 41.384C70.933 41.384 72.117 41.192 73.141 40.808C74.197 40.392 75.173 39.752 76.069 38.888L80.053 43.208C77.621 45.992 74.069 47.384 69.397 47.384C66.485 47.384 63.909 46.824 61.669 45.704C59.429 44.552 57.701 42.968 56.485 40.952C55.269 38.936 54.661 36.648 54.661 34.088C54.661 31.56 55.253 29.288 56.437 27.272C57.653 25.224 59.301 23.64 61.381 22.52C63.493 21.368 65.861 20.792 68.485 20.792C70.949 20.792 73.189 21.32 75.205 22.376C77.221 23.4 78.821 24.904 80.005 26.888C81.221 28.84 81.829 31.16 81.829 33.848L62.725 37.544C63.269 38.824 64.117 39.784 65.269 40.424C66.453 41.064 67.893 41.384 69.589 41.384ZM68.485 26.456C66.597 26.456 65.061 27.064 63.877 28.28C62.693 29.496 62.069 31.176 62.005 33.32L74.581 30.872C74.229 29.528 73.509 28.456 72.421 27.656C71.333 26.856 70.021 26.456 68.485 26.456ZM113.07 21.176V56.312H105.582V44.264C103.726 46.344 101.15 47.384 97.8543 47.384C95.4223 47.384 93.2143 46.84 91.2303 45.752C89.2783 44.664 87.7423 43.112 86.6223 41.096C85.5023 39.08 84.9423 36.744 84.9423 34.088C84.9423 31.432 85.5023 29.096 86.6223 27.08C87.7423 25.064 89.2783 23.512 91.2303 22.424C93.2143 21.336 95.4223 20.792 97.8543 20.792C101.374 20.792 104.062 21.912 105.918 24.152V21.176H113.07ZM99.1503 41.24C101.038 41.24 102.606 40.6 103.854 39.32C105.102 38.008 105.726 36.264 105.726 34.088C105.726 31.912 105.102 30.184 103.854 28.904C102.606 27.592 101.038 26.936 99.1503 26.936C97.2303 26.936 95.6463 27.592 94.3983 28.904C93.1503 30.184 92.5263 31.912 92.5263 34.088C92.5263 36.264 93.1503 38.008 94.3983 39.32C95.6463 40.6 97.2303 41.24 99.1503 41.24ZM146.019 21.176V47H138.915V43.928C137.923 45.048 136.739 45.912 135.363 46.52C133.987 47.096 132.499 47.384 130.899 47.384C127.507 47.384 124.819 46.408 122.835 44.456C120.851 42.504 119.859 39.608 119.859 35.768V21.176H127.347V34.664C127.347 38.824 129.091 40.904 132.579 40.904C134.371 40.904 135.811 40.328 136.899 39.176C137.987 37.992 138.531 36.248 138.531 33.944V21.176H146.019ZM179.164 21.176V47H172.012V44.024C170.156 46.264 167.468 47.384 163.948 47.384C161.516 47.384 159.308 46.84 157.324 45.752C155.372 44.664 153.836 43.112 152.716 41.096C151.596 39.08 151.036 36.744 151.036 34.088C151.036 31.432 151.596 29.096 152.716 27.08C153.836 25.064 155.372 23.512 157.324 22.424C159.308 21.336 161.516 20.792 163.948 20.792C167.244 20.792 169.82 21.832 171.676 23.912V21.176H179.164ZM165.244 41.24C167.132 41.24 168.7 40.6 169.948 39.32C171.196 38.008 171.82 36.264 171.82 34.088C171.82 31.912 171.196 30.184 169.948 28.904C168.7 27.592 167.132 26.936 165.244 26.936C163.324 26.936 161.74 27.592 160.492 28.904C159.244 30.184 158.62 31.912 158.62 34.088C158.62 36.264 159.244 38.008 160.492 39.32C161.74 40.6 163.324 41.24 165.244 41.24ZM195.361 47.384C192.449 47.384 190.177 46.616 188.545 45.08C186.913 43.512 186.097 41.304 186.097 38.456V11.384H193.585V38.024C193.585 39.112 193.857 39.96 194.401 40.568C194.977 41.144 195.777 41.432 196.801 41.432C197.185 41.432 197.569 41.384 197.953 41.288C198.369 41.192 198.689 41.08 198.913 40.952L199.249 46.76C198.001 47.176 196.705 47.384 195.361 47.384ZM225.207 47.384C223.063 47.384 220.967 47.128 218.919 46.616C216.871 46.072 215.239 45.4 214.023 44.6L216.519 39.224C217.671 39.96 219.063 40.568 220.695 41.048C222.327 41.496 223.927 41.72 225.495 41.72C228.663 41.72 230.247 40.936 230.247 39.368C230.247 38.632 229.815 38.104 228.951 37.784C228.087 37.464 226.759 37.192 224.967 36.968C222.855 36.648 221.111 36.28 219.735 35.864C218.359 35.448 217.159 34.712 216.135 33.656C215.143 32.6 214.646 31.096 214.646 29.144C214.646 27.512 215.111 26.072 216.039 24.824C216.999 23.544 218.375 22.552 220.167 21.848C221.991 21.144 224.135 20.792 226.599 20.792C228.423 20.792 230.231 21 232.023 21.416C233.847 21.8 235.351 22.344 236.535 23.048L234.039 28.376C231.767 27.096 229.287 26.456 226.599 26.456C224.999 26.456 223.799 26.68 222.999 27.128C222.199 27.576 221.799 28.152 221.799 28.856C221.799 29.656 222.231 30.216 223.095 30.536C223.959 30.856 225.335 31.16 227.223 31.448C229.335 31.8 231.063 32.184 232.407 32.6C233.751 32.984 234.919 33.704 235.911 34.76C236.903 35.816 237.399 37.288 237.399 39.176C237.399 40.776 236.919 42.2 235.959 43.448C234.999 44.696 233.591 45.672 231.735 46.376C229.911 47.048 227.735 47.384 225.207 47.384ZM257.715 20.792C260.915 20.792 263.491 21.752 265.443 23.672C267.427 25.592 268.419 28.44 268.419 32.216V47H260.931V33.368C260.931 31.32 260.483 29.8 259.587 28.808C258.691 27.784 257.395 27.272 255.699 27.272C253.811 27.272 252.307 27.864 251.187 29.048C250.067 30.2 249.507 31.928 249.507 34.232V47H242.019V11.384H249.507V23.864C250.499 22.872 251.699 22.12 253.107 21.608C254.515 21.064 256.051 20.792 257.715 20.792ZM301.695 21.176V47H294.543V44.024C292.687 46.264 289.999 47.384 286.479 47.384C284.047 47.384 281.839 46.84 279.855 45.752C277.903 44.664 276.367 43.112 275.247 41.096C274.127 39.08 273.567 36.744 273.567 34.088C273.567 31.432 274.127 29.096 275.247 27.08C276.367 25.064 277.903 23.512 279.855 22.424C281.839 21.336 284.047 20.792 286.479 20.792C289.775 20.792 292.351 21.832 294.207 23.912V21.176H301.695ZM287.775 41.24C289.663 41.24 291.231 40.6 292.479 39.32C293.727 38.008 294.351 36.264 294.351 34.088C294.351 31.912 293.727 30.184 292.479 28.904C291.231 27.592 289.663 26.936 287.775 26.936C285.855 26.936 284.271 27.592 283.023 28.904C281.775 30.184 281.151 31.912 281.151 34.088C281.151 36.264 281.775 38.008 283.023 39.32C284.271 40.6 285.855 41.24 287.775 41.24ZM315.78 24.584C316.676 23.336 317.876 22.392 319.38 21.752C320.916 21.112 322.676 20.792 324.66 20.792V27.704C323.828 27.64 323.268 27.608 322.98 27.608C320.836 27.608 319.156 28.216 317.94 29.432C316.724 30.616 316.116 32.408 316.116 34.808V47H308.628V21.176H315.78V24.584ZM341.886 41.384C343.23 41.384 344.414 41.192 345.438 40.808C346.494 40.392 347.47 39.752 348.366 38.888L352.35 43.208C349.918 45.992 346.366 47.384 341.694 47.384C338.782 47.384 336.206 46.824 333.966 45.704C331.726 44.552 329.998 42.968 328.782 40.952C327.566 38.936 326.958 36.648 326.958 34.088C326.958 31.56 327.55 29.288 328.734 27.272C329.95 25.224 331.598 23.64 333.678 22.52C335.79 21.368 338.158 20.792 340.782 20.792C343.246 20.792 345.486 21.32 347.502 22.376C349.518 23.4 351.118 24.904 352.302 26.888C353.518 28.84 354.126 31.16 354.126 33.848L335.022 37.544C335.566 38.824 336.414 39.784 337.566 40.424C338.75 41.064 340.19 41.384 341.886 41.384ZM340.782 26.456C338.894 26.456 337.358 27.064 336.174 28.28C334.99 29.496 334.366 31.176 334.302 33.32L346.878 30.872C346.526 29.528 345.806 28.456 344.718 27.656C343.63 26.856 342.318 26.456 340.782 26.456Z" fill="black"/>
</svg>
