<?xml version="1.0" standalone="no"?>
<!DOCTYPE svg PUBLIC "-//W3C//DTD SVG 20010904//EN"
 "http://www.w3.org/TR/2001/REC-SVG-20010904/DTD/svg10.dtd">
<svg version="1.0" xmlns="http://www.w3.org/2000/svg"
 width="512.000000pt" height="512.000000pt" viewBox="0 0 512.000000 512.000000"
 preserveAspectRatio="xMidYMid meet">
<metadata>
Created by potrace 1.14, written by Peter Selinger 2001-2017
</metadata>
<g transform="translate(0.000000,512.000000) scale(0.100000,-0.100000)"
fill="#000000" stroke="none">
<path d="M1081 4470 c-176 -49 -331 -173 -410 -329 -60 -117 -64 -145 -68
-441 -2 -236 2 -313 20 -375 73 -248 294 -439 536 -462 36 -4 683 -6 1436 -6
1528 0 1419 -5 1575 70 92 45 221 168 269 258 70 132 75 161 78 465 3 315 -3
354 -69 488 -63 129 -185 245 -315 300 -103 44 -161 51 -431 52 -311 1 -327
-3 -418 -94 -42 -43 -71 -84 -97 -139 -52 -109 -105 -185 -177 -250 -83 -74
-209 -139 -317 -162 -61 -14 -210 -13 -274 0 -229 49 -385 176 -500 408 -51
105 -117 178 -191 213 -53 24 -55 24 -318 23 -220 -1 -276 -5 -329 -19z"/>
<path d="M1165 2198 c-273 -35 -486 -228 -550 -499 -19 -84 -19 -535 0 -624
40 -188 177 -360 350 -441 121 -57 169 -63 465 -61 251 2 267 3 306 24 78 42
151 130 194 233 10 26 17 37 61 105 165 252 519 360 808 247 174 -68 300 -191
387 -377 42 -89 114 -171 180 -205 48 -25 53 -25 319 -27 239 -2 279 0 345 17
185 48 336 167 418 330 62 124 70 175 70 465 1 274 -4 313 -47 424 -57 144
-191 279 -338 342 -125 54 -69 52 -1543 53 -751 1 -1392 -2 -1425 -6z"/>
</g>
</svg>
